<svg width="2044" height="2356" xmlns="http://www.w3.org/2000/svg" xmlns:xlink="http://www.w3.org/1999/xlink" xml:space="preserve" overflow="hidden"><g transform="translate(-935 -59)"><g><path d="M1095.5 112.5C1095.5 92.618 1111.62 76.5002 1131.5 76.5002L1507.5 76.5002C1527.38 76.5002 1543.5 92.618 1543.5 112.5L1543.5 256.5C1543.5 276.383 1527.38 292.501 1507.5 292.501L1131.5 292.5C1111.62 292.5 1095.5 276.382 1095.5 256.5Z" stroke="#172C51" stroke-width="6.875" stroke-linecap="butt" stroke-linejoin="miter" stroke-miterlimit="8" stroke-opacity="1" fill="none" fill-rule="evenodd"/><text fill="#000000" fill-opacity="1" font-family="DengXian,DengXian_MSFontService,sans-serif" font-style="normal" font-variant="normal" font-weight="400" font-stretch="normal" font-size="55" text-anchor="start" direction="ltr" writing-mode="lr-tb" unicode-bidi="normal" text-decoration="none" transform="matrix(1 0 0 1 1227.16 201)">Start up</text><path d="M1553.5 169.063 1742.89 169.063 1742.89 175.938 1553.5 175.938ZM1738.3 158.75 1765.8 172.5 1738.3 186.25Z" fill="#000000" fill-rule="nonzero" fill-opacity="1"/><path d="M1768.5 172.5 1992.5 64.5001 2216.5 172.5 1992.5 280.5Z" stroke="#172C51" stroke-width="6.875" stroke-linecap="butt" stroke-linejoin="miter" stroke-miterlimit="8" stroke-opacity="1" fill="#00B0F0" fill-rule="evenodd" fill-opacity="1"/><text fill="#000000" fill-opacity="1" font-family="DengXian,DengXian_MSFontService,sans-serif" font-style="normal" font-variant="normal" font-weight="400" font-stretch="normal" font-size="55" text-anchor="start" direction="ltr" writing-mode="lr-tb" unicode-bidi="normal" text-decoration="none" transform="matrix(1 0 0 1 1889.81 156)">Whether</text><text fill="#000000" fill-opacity="1" font-family="DengXian,DengXian_MSFontService,sans-serif" font-style="normal" font-variant="normal" font-weight="400" font-stretch="normal" font-size="55" text-anchor="start" direction="ltr" writing-mode="lr-tb" unicode-bidi="normal" text-decoration="none" transform="matrix(1 0 0 1 1891.52 222)">duplicate</text><path d="M4.38584e-06-3.4375 259.941-3.43717 259.941 3.43783-4.38584e-06 3.4375ZM255.357-13.7497 282.857 0.000360892 255.357 13.7503Z" fill="#000000" fill-rule="nonzero" fill-opacity="1" transform="matrix(1 0 0 -1 2216.5 172.5)"/><text fill="#000000" fill-opacity="1" font-family="DengXian,DengXian_MSFontService,sans-serif" font-style="normal" font-variant="normal" font-weight="400" font-stretch="normal" font-size="55" text-anchor="start" direction="ltr" writing-mode="lr-tb" unicode-bidi="normal" text-decoration="none" transform="matrix(1 0 0 1 2307.06 143)">Y</text><rect x="2499.5" y="71.5" width="447" height="216" stroke="#172C51" stroke-width="6.875" stroke-linecap="butt" stroke-linejoin="miter" stroke-miterlimit="8" stroke-opacity="1" fill="none"/><text fill="#000000" fill-opacity="1" font-family="DengXian,DengXian_MSFontService,sans-serif" font-style="normal" font-variant="normal" font-weight="400" font-stretch="normal" font-size="55" text-anchor="start" direction="ltr" writing-mode="lr-tb" unicode-bidi="normal" text-decoration="none" transform="matrix(1 0 0 1 2605.9 197)">Just use it</text><path d="M1995.94 280.5 1995.94 356.716 1989.06 356.716 1989.06 280.5ZM2006.25 352.132 1992.5 379.632 1978.75 352.133Z" fill="#000000" fill-rule="nonzero" fill-opacity="1"/><text fill="#000000" fill-opacity="1" font-family="DengXian,DengXian_MSFontService,sans-serif" font-style="normal" font-variant="normal" font-weight="400" font-stretch="normal" font-size="55" text-anchor="start" direction="ltr" writing-mode="lr-tb" unicode-bidi="normal" text-decoration="none" transform="matrix(1 0 0 1 2032.59 330)">N</text><rect x="1777.5" y="380.5" width="448" height="216" stroke="#172C51" stroke-width="6.875" stroke-linecap="butt" stroke-linejoin="miter" stroke-miterlimit="8" stroke-opacity="1" fill="#92D050" fill-opacity="1"/><text fill="#000000" fill-opacity="1" font-family="DengXian,DengXian_MSFontService,sans-serif" font-style="normal" font-variant="normal" font-weight="400" font-stretch="normal" font-size="55" text-anchor="start" direction="ltr" writing-mode="lr-tb" unicode-bidi="normal" text-decoration="none" transform="matrix(1 0 0 1 1816.85 436)">Implement with</text><text fill="#000000" fill-opacity="1" font-family="DengXian,DengXian_MSFontService,sans-serif" font-style="normal" font-variant="normal" font-weight="400" font-stretch="normal" font-size="55" text-anchor="start" direction="ltr" writing-mode="lr-tb" unicode-bidi="normal" text-decoration="none" transform="matrix(1 0 0 1 1855.51 502)">JAX and test</text><text fill="#000000" fill-opacity="1" font-family="DengXian,DengXian_MSFontService,sans-serif" font-style="normal" font-variant="normal" font-weight="400" font-stretch="normal" font-size="55" text-anchor="start" direction="ltr" writing-mode="lr-tb" unicode-bidi="normal" text-decoration="none" transform="matrix(1 0 0 1 1871.55 568)">in plaintext</text><path d="M3.43746-0.0157465 4.42166 214.835-2.45327 214.866-3.43746 0.0157465ZM14.7131 210.204 1.08917 237.767-12.7867 210.33Z" fill="#000000" fill-rule="nonzero" fill-opacity="1" transform="matrix(-1 0 0 1 2001.59 602.5)"/><path d="M1769.5 912.5 1993.5 804.5 2217.5 912.5 1993.5 1020.5Z" stroke="#172C51" stroke-width="6.875" stroke-linecap="butt" stroke-linejoin="miter" stroke-miterlimit="8" stroke-opacity="1" fill="#00B0F0" fill-rule="evenodd" fill-opacity="1"/><text fill="#FFFFFF" fill-opacity="1" font-family="DengXian,DengXian_MSFontService,sans-serif" font-style="normal" font-variant="normal" font-weight="400" font-stretch="normal" font-size="55" text-anchor="start" direction="ltr" writing-mode="lr-tb" unicode-bidi="normal" text-decoration="none" transform="matrix(1 0 0 1 1875.63 907)">Simulation</text><text fill="#FFFFFF" fill-opacity="1" font-family="DengXian,DengXian_MSFontService,sans-serif" font-style="normal" font-variant="normal" font-weight="400" font-stretch="normal" font-size="55" text-anchor="start" direction="ltr" writing-mode="lr-tb" unicode-bidi="normal" text-decoration="none" transform="matrix(1 0 0 1 1958.7 973)">Test</text><text fill="#000000" fill-opacity="1" font-family="DengXian,DengXian_MSFontService,sans-serif" font-style="normal" font-variant="normal" font-weight="400" font-stretch="normal" font-size="55" text-anchor="start" direction="ltr" writing-mode="lr-tb" unicode-bidi="normal" text-decoration="none" transform="matrix(1 0 0 1 2408.3 898)">N</text><path d="M1992.94 1017.5 1992.94 1143.86 1986.06 1143.86 1986.06 1017.5ZM2003.25 1139.27 1989.5 1166.77 1975.75 1139.27Z" fill="#000000" fill-rule="nonzero" fill-opacity="1"/><text fill="#000000" fill-opacity="1" font-family="DengXian,DengXian_MSFontService,sans-serif" font-style="normal" font-variant="normal" font-weight="400" font-stretch="normal" font-size="55" text-anchor="start" direction="ltr" writing-mode="lr-tb" unicode-bidi="normal" text-decoration="none" transform="matrix(1 0 0 1 2014.37 1096)">Y</text><path d="M1762.5 1159.1C1762.5 1171.03 1812.64 1180.7 1874.5 1180.7 1936.36 1180.7 1986.5 1171.03 1986.5 1159.1 1986.5 1147.17 2036.64 1137.5 2098.5 1137.5 2160.36 1137.5 2210.5 1147.17 2210.5 1159.1L2210.5 1331.9C2210.5 1319.97 2160.36 1310.3 2098.5 1310.3 2036.64 1310.3 1986.5 1319.97 1986.5 1331.9 1986.5 1343.83 1936.36 1353.5 1874.5 1353.5 1812.64 1353.5 1762.5 1343.83 1762.5 1331.9Z" stroke="#172C51" stroke-width="6.875" stroke-linecap="butt" stroke-linejoin="miter" stroke-miterlimit="8" stroke-opacity="1" fill="#FFC000" fill-rule="evenodd" fill-opacity="1"/><text fill="#000000" fill-opacity="1" font-family="DengXian,DengXian_MSFontService,sans-serif" font-style="normal" font-variant="normal" font-weight="400" font-stretch="normal" font-size="55" text-anchor="start" direction="ltr" writing-mode="lr-tb" unicode-bidi="normal" text-decoration="none" transform="matrix(1 0 0 1 1868.22 1229)">Accuracy</text><text fill="#000000" fill-opacity="1" font-family="DengXian,DengXian_MSFontService,sans-serif" font-style="normal" font-variant="normal" font-weight="400" font-stretch="normal" font-size="55" text-anchor="start" direction="ltr" writing-mode="lr-tb" unicode-bidi="normal" text-decoration="none" transform="matrix(1 0 0 1 1930.09 1295)">Pass</text><path d="M1772.5 1604.5 1996 1496.5 2219.5 1604.5 1996 1712.5Z" stroke="#172C51" stroke-width="6.875" stroke-linecap="butt" stroke-linejoin="miter" stroke-miterlimit="8" stroke-opacity="1" fill="#00B0F0" fill-rule="evenodd" fill-opacity="1"/><text fill="#FFFFFF" fill-opacity="1" font-family="DengXian,DengXian_MSFontService,sans-serif" font-style="normal" font-variant="normal" font-weight="400" font-stretch="normal" font-size="55" text-anchor="start" direction="ltr" writing-mode="lr-tb" unicode-bidi="normal" text-decoration="none" transform="matrix(1 0 0 1 1881.86 1596)">Emulation</text><text fill="#FFFFFF" fill-opacity="1" font-family="DengXian,DengXian_MSFontService,sans-serif" font-style="normal" font-variant="normal" font-weight="400" font-stretch="normal" font-size="55" text-anchor="start" direction="ltr" writing-mode="lr-tb" unicode-bidi="normal" text-decoration="none" transform="matrix(1 0 0 1 1958.63 1662)">Test</text><path d="M1992.94 1328.44 1995.36 1466.94 1988.48 1467.06 1986.06 1328.56ZM2005.59 1462.18 1992.32 1489.92 1978.09 1462.66Z" fill="#000000" fill-rule="nonzero" fill-opacity="1"/><text fill="#000000" fill-opacity="1" font-family="DengXian,DengXian_MSFontService,sans-serif" font-style="normal" font-variant="normal" font-weight="400" font-stretch="normal" font-size="55" text-anchor="start" direction="ltr" writing-mode="lr-tb" unicode-bidi="normal" text-decoration="none" transform="matrix(1 0 0 1 1502.67 1577)">N</text><path d="M2004.94 1714.5 2004.94 1827.08 1998.06 1827.08 1998.06 1714.5ZM2015.25 1822.5 2001.5 1850 1987.75 1822.5Z" fill="#000000" fill-rule="nonzero" fill-opacity="1"/><text fill="#000000" fill-opacity="1" font-family="DengXian,DengXian_MSFontService,sans-serif" font-style="normal" font-variant="normal" font-weight="400" font-stretch="normal" font-size="55" text-anchor="start" direction="ltr" writing-mode="lr-tb" unicode-bidi="normal" text-decoration="none" transform="matrix(1 0 0 1 2033.75 1789)">Y</text><path d="M1748.5 1870.1C1748.5 1882.03 1798.64 1891.7 1860.5 1891.7 1922.36 1891.7 1972.5 1882.03 1972.5 1870.1 1972.5 1858.17 2022.64 1848.5 2084.5 1848.5 2146.36 1848.5 2196.5 1858.17 2196.5 1870.1L2196.5 2042.9C2196.5 2030.97 2146.36 2021.3 2084.5 2021.3 2022.64 2021.3 1972.5 2030.97 1972.5 2042.9 1972.5 2054.83 1922.36 2064.5 1860.5 2064.5 1798.64 2064.5 1748.5 2054.83 1748.5 2042.9Z" stroke="#172C51" stroke-width="6.875" stroke-linecap="butt" stroke-linejoin="miter" stroke-miterlimit="8" stroke-opacity="1" fill="#FFC000" fill-rule="evenodd" fill-opacity="1"/><text fill="#000000" fill-opacity="1" font-family="DengXian,DengXian_MSFontService,sans-serif" font-style="normal" font-variant="normal" font-weight="400" font-stretch="normal" font-size="55" text-anchor="start" direction="ltr" writing-mode="lr-tb" unicode-bidi="normal" text-decoration="none" transform="matrix(1 0 0 1 1875.47 1938)">Efficiency</text><text fill="#000000" fill-opacity="1" font-family="DengXian,DengXian_MSFontService,sans-serif" font-style="normal" font-variant="normal" font-weight="400" font-stretch="normal" font-size="55" text-anchor="start" direction="ltr" writing-mode="lr-tb" unicode-bidi="normal" text-decoration="none" transform="matrix(1 0 0 1 1940.21 2004)">Pass</text><rect x="2499.5" y="589.5" width="447" height="216" stroke="#172C51" stroke-width="6.875" stroke-linecap="butt" stroke-linejoin="miter" stroke-miterlimit="8" stroke-opacity="1" fill="#92D050" fill-opacity="1"/><text fill="#000000" fill-opacity="1" font-family="DengXian,DengXian_MSFontService,sans-serif" font-style="normal" font-variant="normal" font-weight="400" font-stretch="normal" font-size="55" text-anchor="start" direction="ltr" writing-mode="lr-tb" unicode-bidi="normal" text-decoration="none" transform="matrix(1 0 0 1 2501.64 674)">Improve numerical</text><text fill="#000000" fill-opacity="1" font-family="DengXian,DengXian_MSFontService,sans-serif" font-style="normal" font-variant="normal" font-weight="400" font-stretch="normal" font-size="55" text-anchor="start" direction="ltr" writing-mode="lr-tb" unicode-bidi="normal" text-decoration="none" transform="matrix(1 0 0 1 2616.52 740)">precision</text><path d="M0-3.4375 508.628-3.4375 508.628 84.1471 501.753 84.1471 501.753 0 505.191 3.4375 0 3.4375ZM518.94 79.5638 505.191 107.064 491.441 79.5638Z" fill="#000000" fill-rule="nonzero" fill-opacity="1" transform="matrix(1 0 0 -1 2217.5 912.564)"/><path d="M0-3.4375 106.382-3.4375 106.382 480.096 99.5074 480.096 99.5074 0 102.945 3.4375 0 3.4375ZM116.695 475.513 102.945 503.013 89.1949 475.513Z" fill="#000000" fill-rule="nonzero" fill-opacity="1" transform="matrix(-1.83697e-16 -1 -1 1.83697e-16 2722.51 589.445)"/><rect x="970.5" y="1059.5" width="448" height="216" stroke="#172C51" stroke-width="6.875" stroke-linecap="butt" stroke-linejoin="miter" stroke-miterlimit="8" stroke-opacity="1" fill="#92D050" fill-opacity="1"/><path d="M1762.18 1614.07 1191.06 1614.07 1191.06 1298.42 1197.94 1298.42 1197.94 1610.63 1194.5 1607.19 1762.18 1607.19ZM1180.75 1303 1194.5 1275.5 1208.25 1303Z" fill="#000000" fill-rule="nonzero" fill-opacity="1"/><text fill="#000000" fill-opacity="1" font-family="DengXian,DengXian_MSFontService,sans-serif" font-style="normal" font-variant="normal" font-weight="400" font-stretch="normal" font-size="55" text-anchor="start" direction="ltr" writing-mode="lr-tb" unicode-bidi="normal" text-decoration="none" transform="matrix(1 0 0 1 970.44 1148)">Optimize based on</text><text fill="#000000" fill-opacity="1" font-family="DengXian,DengXian_MSFontService,sans-serif" font-style="normal" font-variant="normal" font-weight="400" font-stretch="normal" font-size="55" text-anchor="start" direction="ltr" writing-mode="lr-tb" unicode-bidi="normal" text-decoration="none" transform="matrix(1 0 0 1 1063.83 1214)">cost model</text><path d="M1191.06 1059.61 1191.06 483.063 1759.44 483.063 1759.44 489.938 1194.5 489.938 1197.94 486.5 1197.94 1059.61ZM1754.85 472.75 1782.35 486.5 1754.85 500.25Z" fill="#000000" fill-rule="nonzero" fill-opacity="1"/><path d="M1989.94 2028.44 1992.36 2166.94 1985.48 2167.06 1983.06 2028.56ZM2002.59 2162.18 1989.32 2189.92 1975.09 2162.66Z" fill="#000000" fill-rule="nonzero" fill-opacity="1"/><rect x="1757.5" y="2195.5" width="448" height="216" stroke="#172C51" stroke-width="6.875" stroke-linecap="butt" stroke-linejoin="miter" stroke-miterlimit="8" stroke-opacity="1" fill="#92D050" fill-opacity="1"/><text fill="#000000" fill-opacity="1" font-family="DengXian,DengXian_MSFontService,sans-serif" font-style="normal" font-variant="normal" font-weight="400" font-stretch="normal" font-size="55" text-anchor="start" direction="ltr" writing-mode="lr-tb" unicode-bidi="normal" text-decoration="none" transform="matrix(1 0 0 1 1828.27 2322)">Pull Requests</text></g></g></svg>